<svg xmlns="http://www.w3.org/2000/svg" viewBox="0 0 16.134 32.974" height="124.625" width="60.98"><g style="fill:#000;fill-opacity:1;stroke:#00f400;stroke-width:13.5;stroke-miterlimit:4;stroke-dasharray:none;stroke-opacity:1;paint-order:stroke fill markers"><path d="M0 0c.26.517.012 1.91-.745 4.176-.172.647-.432 1.554-.776 2.719a227.994 227.994 0 0 0-.922 3.189 96.667 96.667 0 0 0-.73 2.735c-.021.151-.102.61-.242 1.377-.141.766-.291 1.381-.453 1.846a3.01 3.01 0 0 1-.697 1.149c-.432.431-1.279.663-2.54.695a22.315 22.315 0 0 1-3.789-.227 27.503 27.503 0 0 0-3.722-.292c-1.22-.011-2.025.179-2.412.567-.195.194-.383.492-.568.89-.182.399-.311.712-.389.939-.075.227-.182.636-.323 1.23-.14.595-.22.923-.242.988-1.316 4.598-1.974 9.011-1.975 13.241.001 4.231.659 8.644 1.975 13.242.022.065.103.394.243.987.14.594.247 1.004.324 1.231.075.227.205.54.388.939.184.399.372.696.567.89.388.388 1.192.577 2.412.567a27.64 27.64 0 0 0 3.722-.292 22.315 22.315 0 0 1 3.789-.227c1.262.032 2.109.264 2.541.696a3 3 0 0 1 .696 1.149c.162.464.312 1.079.453 1.846.14.766.221 1.224.242 1.376.216.863.459 1.774.729 2.735.269.961.578 2.024.923 3.189.344 1.165.604 2.072.777 2.72C.011 68.535.26 69.927 0 70.445c-.086.216-.28.476-.582.777-.583.583-1.452 1.236-2.606 1.959-1.156.723-2.121 1.236-2.899 1.538-1.532.626-3.992.453-7.381-.517-3.129-.928-5.686-2.385-7.672-4.371a17.587 17.587 0 0 1-1.587-1.813 19.91 19.91 0 0 1-1.457-2.267 37.896 37.896 0 0 1-1.068-2.006c-.216-.453-.594-1.273-1.133-2.461a101.25 101.25 0 0 0-1.004-2.169c-1.36-2.87-2.352-5.654-2.978-8.352-1.059-4.467-1.588-9.648-1.588-15.54 0-5.892.529-11.073 1.587-15.54.626-2.698 1.619-5.483 2.978-8.354.13-.258.464-.981 1.003-2.168.54-1.187.918-2.008 1.133-2.461a38.01 38.01 0 0 1 1.067-2.007c.498-.886.983-1.641 1.458-2.268A17.656 17.656 0 0 1-21.143.613c1.986-1.986 4.543-3.443 7.673-4.371 3.388-.971 5.848-1.143 7.381-.517.777.301 1.743.815 2.898 1.538 1.155.722 2.023 1.375 2.606 1.958.304.303.497.561.585.779" style="fill:#000;fill-opacity:1;fill-rule:nonzero;stroke:#00f400;stroke-width:13.5;stroke-miterlimit:4;stroke-dasharray:none;stroke-opacity:1;paint-order:stroke fill markers" transform="matrix(.35278 0 0 -.35278 13.654 28.912)"/></g></svg>